# xmcd
#
# Track frame offsets:
#  150
#  21096
#  37852
#  56667
#  78959
#  101425
#  118094
#  139434
#  161863
#  187996
#  206487
#
# Disc length: 2990 seconds
#
# Revision: 0
# Processed by: cddbd v1.5.1PL0 Copyright (c) Steve Scherf et al.
# Submitted via: Collectorz.com_Music_Collector 6.9
#
DISCID=900bac0b
DTITLE=Rumdummies - Too Dum To Quit
DYEAR=2005
DGENRE=Blues
TTITLE0=Darlin' Honey Bee
TTITLE1=One More Fool
TTITLE2=Can't Let It Slide
TTITLE3=New York Subway Blues
TTITLE4=Savanna Sky
TTITLE5=Mapping The Over Yonder
TTITLE6=Laugh Instead Of Cry
TTITLE7=My Biscuit's Got A Hole
TTITLE8=Boil That Turpentine
TTITLE9=Jaywalker
TTITLE10=None Of The Above
EXTD=
EXTT0=
EXTT1=
EXTT2=
EXTT3=
EXTT4=
EXTT5=
EXTT6=
EXTT7=
EXTT8=
EXTT9=
EXTT10=
PLAYORDER=
